<?xml version="1.0" encoding="UTF-8"?>
<svg id="Warstwa_1" data-name="Warstwa 1" xmlns="http://www.w3.org/2000/svg" viewBox="0 0 267 95">
  <defs>
    <style>
      .cls-1 {
        fill: none;
      }

      .cls-2 {
        fill: #00494b;
      }
    </style>
  </defs>
  <rect class="cls-1" width="267" height="95"/>
  <g>
    <path class="cls-2" d="m124.75,66.03c.27-.17.58-.26.94-.26.4,0,.73.1,1.01.3.28.2.48.49.61.86l1.23-.46c-.22-.62-.58-1.1-1.07-1.45-.5-.35-1.09-.53-1.78-.53-.61,0-1.15.14-1.61.43-.46.28-.83.68-1.08,1.19-.26.51-.39,1.1-.39,1.79s.13,1.28.39,1.79c.26.51.62.91,1.08,1.19.46.29,1,.43,1.61.43.69,0,1.28-.18,1.78-.53.5-.35.85-.84,1.07-1.44l-1.23-.46c-.13.36-.33.64-.61.85-.28.21-.61.31-1.01.31-.36,0-.67-.09-.94-.26-.27-.17-.47-.42-.62-.74-.14-.32-.22-.7-.22-1.14s.07-.82.22-1.14c.14-.32.35-.56.62-.73Z"/>
    <polygon class="cls-2" points="116.43 71.15 120.69 71.15 120.69 69.96 117.73 69.96 117.73 68.41 120.51 68.41 120.51 67.22 117.73 67.22 117.73 65.85 120.69 65.85 120.69 64.65 116.43 64.65 116.43 71.15"/>
    <path class="cls-2" d="m221.98,66.03c.27-.17.58-.26.94-.26.4,0,.73.1,1.01.3.28.2.48.49.61.86l1.23-.46c-.22-.62-.58-1.1-1.08-1.45-.5-.35-1.09-.53-1.78-.53-.61,0-1.15.14-1.61.43-.46.28-.82.68-1.08,1.19-.26.51-.39,1.1-.39,1.79s.13,1.28.39,1.79c.26.51.62.91,1.08,1.19.46.29,1,.43,1.61.43.69,0,1.28-.18,1.78-.53.5-.35.86-.84,1.08-1.44l-1.23-.46c-.13.36-.33.64-.61.85-.28.21-.61.31-1.01.31-.36,0-.67-.09-.94-.26-.27-.17-.47-.42-.62-.74-.14-.32-.22-.7-.22-1.14s.07-.82.22-1.14c.14-.32.35-.56.62-.73Z"/>
    <polygon class="cls-2" points="141.99 68.84 139.46 64.65 138.12 64.65 138.12 71.15 139.42 71.15 139.42 66.94 141.95 71.15 143.31 71.15 143.31 64.65 141.99 64.65 141.99 68.84"/>
    <polygon class="cls-2" points="134.47 67.19 131.85 67.19 131.85 64.65 130.55 64.65 130.55 71.15 131.85 71.15 131.85 68.41 134.47 68.41 134.47 71.15 135.77 71.15 135.77 64.65 134.47 64.65 134.47 67.19"/>
    <polygon class="cls-2" points="233.26 64.65 231.5 64.65 229.08 67.27 229.08 64.65 227.78 64.65 227.78 71.15 229.08 71.15 229.08 68.97 229.88 68.15 231.73 71.15 233.28 71.15 230.82 67.17 233.26 64.65"/>
    <path class="cls-2" d="m96.88,64.92c-.46-.28-1-.42-1.62-.42s-1.15.14-1.61.43c-.46.28-.82.68-1.08,1.19-.26.51-.39,1.11-.39,1.79s.13,1.27.39,1.78c.26.51.62.91,1.08,1.19.46.29,1,.43,1.61.43s1.14-.14,1.61-.42c.46-.28.83-.68,1.09-1.19.26-.51.39-1.11.39-1.79s-.13-1.29-.39-1.8c-.26-.51-.62-.91-1.08-1.19Zm-.06,4.11c-.15.32-.35.57-.61.74-.26.17-.58.26-.94.26s-.67-.09-.94-.26c-.27-.17-.47-.42-.62-.73-.14-.32-.22-.69-.22-1.14s.07-.83.22-1.15c.14-.32.35-.56.62-.73.27-.17.58-.26.93-.26.37,0,.69.09.95.26.26.17.47.42.61.74.15.32.22.7.22,1.13s-.07.8-.22,1.12Z"/>
    <path class="cls-2" d="m239.33,71.15h1.43l-2.6-6.5h-.97l-2.6,6.5h1.43l.44-1.19h2.46l.43,1.19Zm-2.45-2.38l.79-2.15.78,2.15h-1.58Z"/>
    <path class="cls-2" d="m216.53,64.92c-.46-.28-1-.42-1.62-.42s-1.15.14-1.61.43c-.46.28-.83.68-1.08,1.19-.26.51-.39,1.11-.39,1.79s.13,1.27.39,1.78c.26.51.62.91,1.08,1.19.46.29,1,.43,1.61.43s1.15-.14,1.61-.42c.46-.28.83-.68,1.09-1.19.26-.51.39-1.11.39-1.79s-.13-1.29-.39-1.8c-.26-.51-.62-.91-1.08-1.19Zm-.06,4.11c-.15.32-.35.57-.61.74-.26.17-.58.26-.94.26s-.67-.09-.94-.26c-.27-.17-.47-.42-.62-.73-.14-.32-.22-.69-.22-1.14s.07-.83.22-1.15c.14-.32.35-.56.62-.73.27-.17.58-.26.93-.26.37,0,.69.09.95.26.26.17.47.42.61.74.15.32.22.7.22,1.13s-.07.8-.22,1.12Z"/>
    <path class="cls-2" d="m88.26,64.65h-2.18v6.5h1.3v-2.65h.88c.71,0,1.26-.17,1.63-.5.37-.33.56-.82.56-1.46s-.18-1.11-.55-1.42c-.37-.31-.91-.47-1.64-.47Zm.61,2.5c-.18.1-.43.16-.75.16h-.74v-1.46h.74c.34,0,.6.05.76.15.17.1.25.29.25.57s-.09.48-.26.59Z"/>
    <polygon class="cls-2" points="101.75 64.65 100.44 64.65 100.44 71.15 104.41 71.15 104.41 69.96 101.75 69.96 101.75 64.65"/>
    <rect class="cls-2" x="106.26" y="64.65" width="1.31" height="6.5"/>
    <polygon class="cls-2" points="109.41 65.85 111.33 65.85 111.33 71.15 112.66 71.15 112.66 65.85 114.57 65.85 114.57 64.65 109.41 64.65 109.41 65.85"/>
    <rect class="cls-2" x="145.64" y="64.65" width="1.31" height="6.5"/>
    <rect class="cls-2" x="174.45" y="64.65" width="1.31" height="6.5"/>
    <polygon class="cls-2" points="205.22 65.85 207.14 65.85 207.14 71.15 208.46 71.15 208.46 65.85 210.37 65.85 210.37 64.65 205.22 64.65 205.22 65.85"/>
    <polygon class="cls-2" points="154.78 64.65 153.01 64.65 150.6 67.27 150.6 64.65 149.29 64.65 149.29 71.15 150.6 71.15 150.6 68.97 151.39 68.15 153.24 71.15 154.8 71.15 152.34 67.17 154.78 64.65"/>
    <path class="cls-2" d="m158.7,64.65l-2.61,6.5h1.43l.44-1.19h2.46l.43,1.19h1.43l-2.6-6.5h-.97Zm-.3,4.12l.79-2.15.78,2.15h-1.58Z"/>
    <path class="cls-2" d="m202.85,67.75c-.27-.18-.6-.35-1-.5-.3-.12-.54-.23-.72-.32-.18-.1-.3-.2-.38-.3-.07-.1-.11-.22-.11-.34,0-.12.03-.22.1-.32.06-.09.15-.16.25-.21.1-.05.22-.07.35-.07.2,0,.38.06.55.18.16.12.31.29.43.51l1.04-.64c-.21-.41-.48-.72-.81-.92-.33-.2-.72-.31-1.16-.31-.41,0-.77.08-1.07.23-.31.16-.55.37-.72.64-.17.28-.26.59-.26.94,0,.33.07.62.2.87.13.25.33.47.61.66.28.19.62.37,1.03.54.28.1.5.2.68.3.18.09.31.2.39.3.08.11.12.24.12.38,0,.15-.04.29-.12.4-.08.11-.19.2-.33.26-.14.06-.3.09-.47.09-.33,0-.62-.1-.84-.29-.23-.19-.37-.48-.44-.87l-1.28.33c.1.61.37,1.1.81,1.46.44.37,1.01.55,1.7.55.45,0,.85-.08,1.18-.26.34-.17.6-.41.79-.71.19-.3.28-.65.28-1.04,0-.34-.07-.63-.21-.88-.14-.24-.34-.46-.6-.64Z"/>
    <polygon class="cls-2" points="186.86 68.38 187.76 67.66 187.76 66.35 186.86 67.07 186.86 64.65 185.56 64.65 185.56 68.12 185.07 68.51 185.07 69.84 185.56 69.44 185.56 71.15 189.53 71.15 189.53 69.96 186.86 69.96 186.86 68.38"/>
    <path class="cls-2" d="m171.36,67.63c.21-.14.37-.32.48-.54.12-.23.17-.49.17-.79,0-.51-.18-.91-.55-1.2-.37-.29-.87-.44-1.51-.44h-2.31v6.5h2.62c.65,0,1.16-.17,1.53-.51.37-.34.56-.82.56-1.42,0-.38-.08-.71-.25-.98-.17-.27-.42-.47-.76-.62Zm-2.41-1.75h1.01c.24,0,.42.05.55.17.13.11.2.27.2.47,0,.22-.06.39-.19.51-.13.12-.31.19-.54.19h-1.02v-1.33Zm1.21,4.06h-1.21v-1.53h1.24c.27,0,.48.07.63.2.15.13.22.32.22.57,0,.51-.3.76-.9.76Z"/>
    <path class="cls-2" d="m180.18,64.65l-2.61,6.5h1.43l.44-1.19h2.46l.43,1.19h1.43l-2.6-6.5h-.97Zm-.3,4.12l.79-2.15.78,2.15h-1.58Z"/>
    <path class="cls-2" d="m195.69,64.92c-.46-.28-1-.42-1.62-.42s-1.14.14-1.61.43c-.46.28-.82.68-1.08,1.19-.26.51-.39,1.11-.39,1.79s.13,1.27.39,1.78c.26.51.62.91,1.08,1.19.46.29,1,.43,1.61.43s1.15-.14,1.61-.42c.46-.28.83-.68,1.09-1.19.26-.51.39-1.11.39-1.79s-.13-1.29-.39-1.8c-.26-.51-.62-.91-1.08-1.19Zm-.06,4.11c-.15.32-.35.57-.61.74-.26.17-.58.26-.94.26s-.67-.09-.94-.26c-.27-.17-.47-.42-.62-.73-.14-.32-.21-.69-.21-1.14s.07-.83.21-1.15c.14-.32.35-.56.62-.73.27-.17.58-.26.93-.26.37,0,.69.09.95.26.26.17.47.42.61.74.15.32.22.7.22,1.13s-.07.8-.22,1.12Z"/>
    <rect class="cls-2" x="171.67" y="42.67" width="2.04" height="8.11"/>
    <path class="cls-2" d="m103.11,41.12c.11-.18.3-.26.56-.26.12,0,.24.02.36.06.12.04.24.09.35.14l.66-1.56c-.23-.11-.47-.19-.72-.26-.25-.06-.54-.09-.88-.09-.45,0-.87.08-1.26.23-.39.15-.7.42-.93.81-.23.38-.35.93-.35,1.63v.86h-1.48v1.59h1.46v6.51h2.06v-6.51h1.73v-1.59h-1.73v-.84c0-.29.05-.53.16-.71Z"/>
    <rect class="cls-2" x="86.11" y="39.31" width="2.12" height="11.47"/>
    <path class="cls-2" d="m92.72,46.9c0-.61.07-1.11.2-1.5.13-.38.33-.66.58-.85.26-.18.58-.27.98-.27.52,0,.9.16,1.14.47.24.32.36.81.36,1.49v4.54h2.06v-5.29c0-.94-.26-1.68-.78-2.2-.52-.52-1.24-.78-2.16-.78-.38,0-.76.07-1.12.21-.36.14-.68.35-.95.65-.11.12-.21.27-.3.42v-1.11h-2.06v8.11h2.06v-3.88Z"/>
    <rect class="cls-2" x="171.61" y="39.31" width="2.19" height="2.11"/>
    <polygon class="cls-2" points="158.35 42.67 156.41 48.11 154.5 42.67 152.26 42.67 155.32 50.16 153.68 54.14 155.9 54.14 160.55 42.67 158.35 42.67"/>
    <path class="cls-2" d="m140.86,42.51c-.69,0-1.33.1-1.93.31-.6.2-1.18.53-1.75.99l1.03,1.4c.34-.31.73-.55,1.18-.72.44-.17.88-.25,1.31-.25.52,0,.92.12,1.23.35.3.24.45.59.45,1.08v.2h-2.34c-.38,0-.74.03-1.08.1-.33.06-.64.18-.91.34-.32.18-.57.43-.76.77-.19.33-.29.74-.29,1.21,0,.53.13.99.4,1.4.27.41.64.72,1.1.94.47.22.99.33,1.59.33.42,0,.81-.08,1.18-.25.37-.16.71-.43,1-.78.05-.06.08-.14.13-.2l.14,1.07h1.88v-5.12c0-.99-.31-1.76-.94-2.32-.62-.56-1.5-.84-2.62-.84Zm1.24,5.9c-.18.28-.42.5-.72.66-.3.16-.63.24-1,.24-.41,0-.73-.09-.97-.28-.24-.19-.36-.43-.36-.74,0-.14.03-.27.08-.39.05-.11.14-.21.25-.29.12-.1.27-.16.44-.19.17-.03.34-.04.52-.04h2.04v.07c0,.36-.09.68-.27.96Z"/>
    <path class="cls-2" d="m131.67,44.28c.32,0,.58.07.77.21.2.14.35.35.45.63.11.28.16.62.16,1.03v4.62h2.04v-5.12c0-.54-.1-1.04-.3-1.52-.2-.48-.52-.87-.95-1.18-.43-.31-.99-.46-1.68-.46-.46,0-.9.1-1.31.29-.41.19-.77.51-1.08.95-.04-.06-.06-.13-.1-.19-.29-.38-.62-.65-1.01-.81-.38-.16-.79-.24-1.22-.24-.27,0-.55.04-.83.12-.28.08-.55.22-.81.41-.24.18-.44.42-.62.73v-1.1h-2.06v8.11h2.06v-4.1c0-.55.06-1,.18-1.35.12-.35.3-.61.53-.79.24-.17.53-.26.87-.26.43,0,.75.15.98.46.23.31.34.77.34,1.38v4.65h2.04v-4.1c0-.55.06-1,.17-1.35.11-.35.29-.61.52-.79.23-.17.51-.26.84-.26Z"/>
    <path class="cls-2" d="m111.88,50.39c.61-.37,1.1-.87,1.45-1.5.35-.64.53-1.36.53-2.17s-.18-1.55-.53-2.18c-.35-.63-.83-1.13-1.45-1.49-.61-.36-1.31-.54-2.09-.54s-1.49.18-2.11.54c-.62.36-1.11.86-1.46,1.49-.35.63-.53,1.36-.53,2.18s.18,1.54.54,2.18c.36.64.84,1.14,1.46,1.5.61.36,1.31.54,2.1.54s1.48-.18,2.09-.55Zm-3.9-2.38c-.17-.36-.25-.79-.25-1.3s.08-.95.25-1.31c.16-.36.4-.63.71-.82.31-.19.67-.29,1.1-.29s.78.1,1.08.29c.3.19.53.46.69.82.16.36.24.79.24,1.31s-.08.94-.24,1.3c-.16.36-.39.64-.69.84-.3.2-.66.3-1.08.3s-.79-.1-1.1-.3c-.31-.2-.54-.48-.71-.84Z"/>
    <path class="cls-2" d="m150.44,50.89c.23-.04.46-.1.69-.19v-1.56c-.16.04-.31.08-.45.1-.14.02-.26.03-.37.03-.37,0-.62-.12-.75-.36-.13-.24-.19-.6-.19-1.07v-3.57h1.76v-1.59h-1.76v-3l-2.07,1.1v1.89h-1.48v1.59h1.48v4.13c0,.62.11,1.12.34,1.5.23.37.53.64.9.81.37.17.78.25,1.22.25.23,0,.46-.02.69-.06Z"/>
    <polygon class="cls-2" points="166.79 45.7 169.73 42.67 167.13 42.67 164.21 45.75 164.21 39.31 162.15 39.31 162.15 50.78 164.21 50.78 164.21 48.29 165.29 47.08 167.64 50.78 170.08 50.78 166.79 45.7"/>
    <path class="cls-2" d="m120.04,42.51c-.38,0-.76.1-1.13.31-.37.2-.68.49-.93.85-.05.07-.07.15-.11.23v-1.21h-2.06v8.11h2.06v-3.49c0-.45.01-.79.04-1.03.03-.24.06-.43.11-.59.1-.27.23-.49.38-.66.16-.16.34-.29.54-.36.2-.08.41-.12.63-.12.19,0,.37.03.56.08.19.05.34.12.46.18l.99-1.84c-.26-.16-.52-.28-.77-.35-.25-.07-.51-.11-.78-.11Z"/>
    <polygon class="cls-2" points="103.42 29.78 101.78 33.76 104 33.76 108.65 22.3 106.45 22.3 104.51 27.74 102.6 22.3 100.36 22.3 103.42 29.78"/>
    <polygon class="cls-2" points="125.83 28.71 121.91 28.71 125.83 23.76 125.83 22.3 119.48 22.3 119.48 23.99 123.35 23.99 119.3 29.04 119.3 30.41 125.83 30.41 125.83 28.71"/>
    <rect class="cls-2" x="127.72" y="18.94" width="2.19" height="2.11"/>
    <rect class="cls-2" x="127.78" y="22.3" width="2.04" height="8.11"/>
    <path class="cls-2" d="m143.46,18.94h-2.02v5.39l-.91.67v1.91l.91-.67v2.22c0,.74.18,1.27.54,1.61.36.34.82.51,1.38.51.17,0,.37-.02.6-.06.23-.04.45-.1.68-.19v-1.75c-.11.03-.21.06-.31.07-.1.02-.19.02-.28.02-.18,0-.32-.05-.43-.14-.11-.09-.17-.26-.17-.49v-3.33l1.19-.88v-1.87l-1.19.87v-3.9Z"/>
    <path class="cls-2" d="m117.39,30.41v-11.47h-2.02v4.52c-.05-.08-.08-.17-.13-.24-.27-.36-.6-.63-.98-.81-.38-.18-.79-.27-1.22-.27-.63,0-1.2.17-1.73.5-.53.33-.95.82-1.26,1.44-.31.62-.47,1.38-.47,2.27,0,.8.14,1.52.42,2.16.28.64.68,1.15,1.19,1.51.52.37,1.13.55,1.84.55.41,0,.8-.08,1.18-.24.38-.16.71-.43,1-.8.06-.08.1-.19.16-.28v1.15h2.02Zm-2.76-2.01c-.29.2-.64.3-1.05.3s-.74-.1-1.04-.29c-.3-.19-.52-.46-.68-.82-.16-.35-.24-.77-.24-1.25s.08-.9.24-1.24c.16-.35.38-.61.68-.81.29-.19.64-.29,1.04-.29s.75.1,1.05.29c.29.19.51.46.67.81.16.35.24.76.24,1.23s-.08.88-.24,1.23c-.16.35-.38.62-.67.82Z"/>
    <path class="cls-2" d="m137.21,29.34l.14,1.07h1.87v-5.12c0-.99-.31-1.76-.94-2.32-.62-.56-1.5-.84-2.62-.84-.69,0-1.34.1-1.93.3-.6.2-1.18.54-1.75.99l1.04,1.4c.34-.31.73-.55,1.18-.72s.88-.26,1.31-.26c.52,0,.92.12,1.22.35.3.24.45.6.45,1.08v.2h-2.34c-.39,0-.74.03-1.08.1-.33.06-.64.18-.91.34-.32.17-.58.43-.77.76-.19.33-.29.74-.29,1.21,0,.53.13.99.4,1.4.27.41.64.72,1.1.94.47.22,1,.33,1.59.33.42,0,.81-.08,1.18-.25.37-.17.7-.43,1-.78.05-.06.08-.14.13-.21Zm-1.02-.65c-.3.16-.63.24-.99.24-.41,0-.73-.09-.97-.28-.24-.19-.36-.43-.36-.74,0-.14.03-.27.08-.39.05-.12.14-.21.25-.29.12-.1.27-.16.44-.19.17-.03.34-.04.52-.04h2.04v.07c0,.36-.09.68-.27.96-.18.28-.42.5-.72.66Z"/>
    <polygon class="cls-2" points="90.23 30.41 92.54 22.72 94.87 30.41 96.92 30.41 100.38 18.94 98.16 18.94 95.77 27.15 93.6 19.6 91.5 19.6 89.31 27.15 86.94 18.94 84.71 18.94 88.16 30.41 90.23 30.41"/>
    <path class="cls-2" d="m67.35,25.39c-3.05-3.18-5.16-3.67-8.06-3.66-2.89.01-6.73,2.96-6.02,7.81,0-.15,5.7-4.24,8.94,2.73.76,1.64,1.15,4.81.77,7.73-.28,2.2-1.04,4.23-2.16,5.59-2.52,3.06-6.41,1.4-7.67.29-.85-.75-1.78-2.23-2.25-4.18-.5-2.04-.48-7.7-.43-8.93.13-2.96.24-6.25,1.59-9.33-.89.28-2.64.37-6.52-.01-3.39-.87-4.8-.28-4.85,1.3l-.3.27c-1.93-.2-3.25.61-3.18,3.64,1.34-.58,3.03-.43,4.27.87,2.03,2.12,2.6,7.32,1.96,11.54-.32,2.13-1.16,3.64-2.09,4.52-1.85,1.74-4.92,2.32-8.24-.02-1.25-.89-2.14-3.15-2.16-6-.02-2.08.54-4.55,1.03-6.59,1.06-4.47,3.26-13.27,4.06-16.43h-7.41c-1.16,4.85-3.94,13.82-5.05,19.9-1.17,6.44-.19,10.78,3.5,13.87,6.57,5.52,14.19,2.75,16.21.6,0,.1.01.19.02.29.49,7.11.71,13.11-1.68,20.11,3.6-.57,7.28-.59,11.05,0-2.57-5.14-1.88-17.71-1.85-19.85,1.61.78,3,1.48,4.38,1.9,4.35,1.32,8.16.64,10.87-1.47,2.71-2.12,3.95-5.94,4.51-8.34.56-2.4.93-6.07.41-9.56-.54-3.57-2.01-6.88-3.63-8.57Z"/>
  </g>
</svg>