<?xml version="1.0" encoding="UTF-8"?>
<svg id="Warstwa_1" data-name="Warstwa 1" xmlns="http://www.w3.org/2000/svg" viewBox="0 0 181.42 65.2">
  <defs>
    <style>
      .cls-1 {
        fill: #fff;
      }

      .cls-2 {
        fill: none;
      }
    </style>
  </defs>
  <rect class="cls-2" width="181.42" height="65.2"/>
  <g>
    <path class="cls-1" d="m38.24,20.94c-1.49-1.55-2.63-1.9-4-1.84-.86.04-1.53.41-2.11,1.09-.42.49-.89,1.31-.78,2.52.27-.18.58-.37,1.01-.47,1.03-.23,2.47-.07,3.47,2.08.42.91.59,2.61.41,4.05-.15,1.19-.56,2.23-1.14,2.94-.47.57-1.06.88-1.76.94-1,.08-1.98-.42-2.38-.78-.53-.46-.97-1.29-1.2-2.22-.26-1.05-.25-4.16-.22-4.84v-.15c.07-1.39.14-2.96.72-4.44-.6.11-1.61.08-3.15-.07-1.04-.27-1.74-.27-2.08-.02-.16.12-.25.3-.28.61v.03s-.22.2-.22.2h-.06c-.48-.05-.83.03-1.07.25-.27.25-.4.66-.42,1.28.39-.12,1.34-.3,2.16.55,1.08,1.12,1.38,4.06,1.05,6.26-.15,1.02-.55,1.87-1.12,2.4-.91.86-2.55,1.31-4.41,0-.71-.5-1.16-1.73-1.17-3.19,0-1.05.26-2.27.53-3.42.57-2.42,1.81-7.34,2.16-8.72h-3.53c-.2.9-.54,2.12-.93,3.52l-.03.09c-.64,2.31-1.36,4.93-1.72,6.94-.6,3.32-.06,5.48,1.75,7,3.32,2.79,7.17,1.36,8.14.32l.22-.23.03.46c.24,3.46.37,7.15-.8,10.75,1.73-.25,3.5-.26,5.25,0-1.08-2.52-.92-8.19-.87-10.07v-.02c0-.22.01-.4.01-.51v-.22s.47.23.47.23c.72.35,1.34.65,1.96.84,2.11.63,4.05.38,5.46-.73,1.3-1.02,1.95-2.86,2.27-4.21.13-.57.54-2.62.21-4.87-.27-1.75-.98-3.45-1.83-4.33Z"/>
    <rect class="cls-1" x="122.28" y="19.29" width="1.61" height="1.64"/>
    <path class="cls-1" d="m85.5,27.87c.17.29.4.5.69.63.29.13.6.19.92.19.19,0,.37-.02.55-.05.18-.03.36-.08.54-.14v-1.14c-.13.04-.26.06-.38.09-.12.02-.22.03-.31.03-.29,0-.49-.1-.61-.3-.11-.2-.17-.49-.17-.86v-3.17h1.46v-1.14h-1.46v-2.42l-1.49.83v1.6h-1.25v1.14h1.25v3.58c0,.47.08.85.25,1.14Z"/>
    <path class="cls-1" d="m81.03,27.49c-.43,0-.79-.11-1.08-.32-.3-.21-.53-.46-.7-.73l-1.01.88c.16.21.37.42.61.64.25.21.55.39.92.52.36.14.78.21,1.25.21.52,0,.98-.09,1.38-.27.39-.18.7-.43.92-.75.22-.32.33-.7.33-1.12,0-.38-.08-.7-.23-.94-.15-.24-.36-.44-.6-.59-.24-.15-.51-.26-.79-.35-.28-.09-.56-.16-.83-.23-.28-.07-.52-.14-.71-.21-.19-.07-.32-.15-.41-.24-.09-.09-.13-.2-.13-.35,0-.19.1-.34.29-.45.19-.12.43-.17.71-.17.31,0,.6.07.87.2.27.13.49.33.67.6l.92-.71c-.24-.41-.57-.71-1-.92-.43-.2-.9-.31-1.41-.31-.72,0-1.3.17-1.74.52-.44.35-.67.81-.67,1.39,0,.33.07.6.2.82.13.22.31.4.53.55.22.14.46.26.71.35.26.09.51.17.76.23.26.06.49.13.71.21.21.08.39.17.52.29.13.11.2.26.2.46,0,.22-.1.41-.31.56-.21.15-.49.23-.84.23Z"/>
    <path class="cls-1" d="m56.92,27.86c.53-.47.79-1.13.79-1.98,0-.59-.13-1.07-.39-1.46-.26-.39-.64-.67-1.16-.84.34-.19.6-.46.79-.79s.28-.72.28-1.17c0-.73-.26-1.3-.78-1.71-.52-.41-1.23-.62-2.14-.62h-3.17v9.28h3.55c.95,0,1.69-.24,2.22-.71Zm-4.23-7.16h1.62c.44,0,.78.1,1.02.31.24.2.37.49.37.85s-.12.68-.35.9c-.23.22-.54.33-.93.33h-1.73v-2.38Zm0,6.46v-2.69h2.05c.45,0,.81.12,1.06.35.25.24.38.57.38.99,0,.9-.53,1.34-1.6,1.34h-1.89Z"/>
    <path class="cls-1" d="m66.03,27.75s.05-.08.07-.12l.09.94h1.36v-4.14c0-.8-.25-1.42-.74-1.87-.49-.45-1.18-.67-2.07-.67-.57,0-1.09.09-1.57.26-.48.17-.93.46-1.36.86l.82.97c.28-.28.6-.49.94-.63.34-.14.69-.21,1.04-.21.46,0,.82.11,1.08.33.26.22.39.54.39.96v.19h-1.94c-.31,0-.61.03-.89.09-.28.06-.53.15-.75.29-.25.15-.45.36-.61.63-.16.27-.23.58-.23.95,0,.43.1.8.31,1.12.21.32.5.57.88.75.38.18.81.27,1.3.27.38,0,.73-.08,1.05-.23.32-.15.59-.39.83-.7Zm-2.56-.51c-.22-.16-.33-.39-.33-.67,0-.14.03-.27.09-.37.06-.11.13-.19.22-.27.12-.08.27-.13.42-.17.16-.03.32-.05.48-.05h1.73v.13c0,.31-.08.59-.24.84-.16.25-.37.44-.63.59-.26.14-.55.21-.87.21-.36,0-.65-.08-.87-.25Z"/>
    <path class="cls-1" d="m70.45,28.69c.14,0,.3-.02.48-.05.18-.03.35-.08.52-.15v-1.25c-.09.03-.17.05-.26.07-.08.02-.17.03-.25.03-.15,0-.27-.05-.37-.14-.09-.09-.14-.24-.14-.45v-7.45h-1.48v7.75c0,.58.14,1,.43,1.26.28.26.64.39,1.06.39Z"/>
    <rect class="cls-1" x="58.95" y="22" width="1.48" height="6.56"/>
    <path class="cls-1" d="m94.99,27.04c.28-.51.42-1.1.42-1.76s-.14-1.24-.43-1.76c-.28-.51-.67-.92-1.15-1.2-.48-.29-.84-.43-1.48-.43s-1.4.14-1.89.43c-.49.29-.88.69-1.16,1.2-.28.52-.42,1.1-.42,1.76s.14,1.24.42,1.76c.28.52.67.92,1.16,1.21.5.29,1.06.44,1.68.44s1.19-.15,1.68-.44c.49-.29.88-.7,1.16-1.21Zm-1.88.09c-.27.17-.58.25-.94.25s-.71-.08-.97-.25c-.27-.17-.47-.41-.61-.73-.14-.32-.21-.69-.21-1.12s.07-.81.21-1.12c.14-.31.35-.55.61-.73.27-.17.59-.26.97-.26s.68.08.94.25c.27.17.47.41.61.73.14.32.21.69.21,1.12s-.07.8-.21,1.12c-.14.32-.35.56-.61.73Z"/>
    <rect class="cls-1" x="122.35" y="22" width="1.48" height="6.56"/>
    <rect class="cls-1" x="58.89" y="19.29" width="1.61" height="1.64"/>
    <path class="cls-1" d="m137.03,22.86c-.25-.31-.56-.55-.94-.72-.38-.17-.82-.26-1.32-.26-.53,0-.99.1-1.38.29-.39.19-.71.45-.96.78-.25.33-.43.7-.55,1.11-.12.41-.18.84-.18,1.27s.06.85.19,1.26c.12.4.32.77.57,1.09.26.32.59.57.99.75.4.18.88.27,1.43.27.37,0,.71-.04,1-.11.3-.07.58-.18.86-.33.28-.15.55-.35.83-.6l-.81-.98c-.25.25-.52.43-.83.55-.3.12-.63.17-1,.17-.5,0-.9-.14-1.22-.41-.32-.28-.5-.67-.53-1.2h4.55c.02-.12.03-.23.03-.35,0-.12,0-.2,0-.27,0-.44-.06-.86-.18-1.25-.12-.39-.3-.74-.55-1.04Zm-.68,1.82h-3.21c.03-.28.1-.53.23-.76.13-.24.31-.43.55-.58s.53-.23.87-.23c.25,0,.47.04.67.13.2.08.36.2.49.33.13.14.23.29.3.47.07.18.1.36.1.56,0,.03,0,.05,0,.08Z"/>
    <polygon class="cls-1" points="128.01 26.65 126.35 22 124.72 22 127.4 28.57 128.62 28.57 131.3 22 129.7 22 128.01 26.65"/>
    <path class="cls-1" d="m113.84,25.15v-5.86h-1.53v5.75c0,.51-.06.93-.19,1.26-.12.34-.33.59-.62.77-.29.18-.68.27-1.18.27s-.89-.09-1.18-.26c-.29-.17-.49-.43-.61-.77-.12-.34-.18-.76-.18-1.27v-5.75h-1.54v5.92c0,1.17.3,2.05.9,2.65.6.6,1.47.89,2.62.89s2.03-.3,2.62-.91c.59-.6.89-1.5.89-2.7Z"/>
    <path class="cls-1" d="m142.29,21.88c-.3,0-.61.08-.91.25-.31.17-.56.39-.78.68-.04.06-.07.13-.11.19v-1h-1.49v6.56h1.48v-2.9c0-.36.01-.63.03-.83.02-.2.05-.36.1-.49.07-.23.18-.42.32-.57.14-.15.3-.25.49-.33.18-.07.37-.11.55-.11.14,0,.29.02.45.06.16.04.28.09.38.15l.72-1.33c-.21-.12-.42-.21-.61-.27-.2-.05-.4-.08-.61-.08Z"/>
    <path class="cls-1" d="m119.09,23.58c.21.28.32.71.32,1.29v3.7h1.48v-4.25c0-.78-.21-1.38-.62-1.8-.41-.42-.99-.63-1.72-.63-.33,0-.64.06-.94.17-.3.12-.56.29-.78.53-.09.1-.17.22-.24.34v-.92h-1.48v6.56h1.48v-3.19c0-.51.06-.92.17-1.25.11-.33.28-.57.51-.73.23-.16.5-.23.83-.23.44,0,.77.14.98.41Z"/>
    <path class="cls-1" d="m155.28,19.58l-1.49.83v1.6h-1.25v1.14h1.25v3.58c0,.47.09.85.25,1.14.17.29.4.5.69.63.29.13.6.19.92.19.19,0,.37-.02.55-.05.18-.03.36-.08.54-.14v-1.14c-.13.04-.26.06-.38.09-.12.02-.22.03-.31.03-.29,0-.49-.1-.6-.3-.11-.2-.17-.49-.17-.86v-3.17h1.46v-1.14h-1.46v-2.42Z"/>
    <rect class="cls-1" x="150.2" y="19.29" width="1.61" height="1.64"/>
    <rect class="cls-1" x="150.27" y="22" width="1.48" height="6.56"/>
    <path class="cls-1" d="m148.23,25.02c-.24-.15-.51-.26-.79-.35-.28-.09-.56-.16-.83-.23-.28-.07-.52-.14-.71-.21-.19-.07-.32-.15-.41-.24-.09-.09-.13-.2-.13-.35,0-.19.09-.34.29-.45.19-.12.43-.17.71-.17.31,0,.6.07.87.2.27.13.49.33.67.6l.92-.71c-.24-.41-.57-.71-1-.92-.43-.2-.9-.31-1.41-.31-.72,0-1.3.17-1.74.52-.44.35-.67.81-.67,1.39,0,.33.07.6.2.82.13.22.31.4.53.55.22.14.45.26.71.35.26.09.51.17.76.23.26.06.49.13.71.21.21.08.39.17.52.29.13.11.2.26.2.46,0,.22-.1.41-.31.56-.21.15-.49.23-.84.23-.43,0-.79-.11-1.08-.32-.3-.21-.53-.46-.7-.73l-1.01.88c.16.21.36.42.61.64.25.21.55.39.92.52.36.14.78.21,1.25.21.52,0,.98-.09,1.38-.27.39-.18.7-.43.92-.75.22-.32.33-.7.33-1.12,0-.38-.08-.7-.23-.94-.16-.24-.36-.44-.6-.59Z"/>
    <polygon class="cls-1" points="102.84 28.57 100.18 24.45 102.55 22 100.66 22 98.12 24.66 98.12 19.29 96.64 19.29 96.64 28.57 98.12 28.57 98.12 26.53 99.1 25.44 101.09 28.57 102.84 28.57"/>
    <polygon class="cls-1" points="74.71 26.65 73.04 22 71.42 22 73.92 28.13 72.7 30.95 74.29 30.95 77.99 22 76.4 22 74.71 26.65"/>
    <polygon class="cls-1" points="162.22 22 160.53 26.65 158.86 22 157.24 22 159.74 28.13 158.52 30.95 160.11 30.95 163.82 22 162.22 22"/>
    <path class="cls-1" d="m80.58,39.15c.24-.2.56-.31.95-.31s.71.1.95.31c.24.21.41.48.52.82l1.31-.5c-.23-.65-.59-1.13-1.07-1.44-.48-.31-1.05-.47-1.7-.47-.51,0-.97.09-1.36.27-.4.18-.72.43-.99.75-.26.32-.46.68-.59,1.09-.13.41-.2.83-.2,1.28s.07.87.2,1.28c.13.41.33.77.59,1.1.26.32.59.58.99.76.39.18.85.27,1.36.27.65,0,1.21-.16,1.7-.47.48-.32.84-.79,1.07-1.43l-1.31-.51c-.11.34-.28.61-.52.81-.24.2-.55.31-.95.31s-.71-.1-.95-.3c-.24-.2-.42-.46-.54-.79-.12-.32-.17-.67-.17-1.03s.06-.71.17-1.02c.11-.32.29-.58.54-.79Z"/>
    <path class="cls-1" d="m109.32,43.01c-.15,0-.27-.05-.37-.14-.09-.09-.14-.24-.14-.45v-7.71h-1.48v8c0,.58.14,1,.43,1.26.28.26.64.39,1.06.39.14,0,.3-.02.48-.05.18-.03.35-.08.52-.15v-1.25c-.09.03-.18.05-.26.07-.08.02-.17.03-.25.03Z"/>
    <path class="cls-1" d="m88.87,37.57c-.33,0-.64.06-.93.17-.29.12-.55.29-.78.53-.09.1-.17.22-.25.34v-3.9h-1.48v9.54h1.48v-3.2c0-.76.13-1.32.38-1.68.26-.35.63-.53,1.13-.53.45,0,.77.14.99.41.21.28.32.71.32,1.29v3.7h1.48v-4.25c0-.78-.21-1.38-.62-1.8-.41-.42-.99-.63-1.72-.63Z"/>
    <path class="cls-1" d="m104.57,38c-.48-.29-1.04-.43-1.68-.43s-1.19.14-1.68.43c-.49.29-.88.69-1.16,1.2-.28.51-.42,1.1-.42,1.76s.14,1.24.42,1.76c.28.52.67.92,1.17,1.21.5.29,1.06.44,1.68.44s1.19-.15,1.68-.44c.49-.29.88-.7,1.16-1.21.28-.51.42-1.1.42-1.76s-.14-1.24-.43-1.76c-.28-.51-.67-.92-1.15-1.2Zm-.11,4.08c-.14.32-.35.56-.61.73-.27.17-.58.25-.94.25-.38,0-.71-.08-.97-.25-.27-.17-.47-.41-.61-.73-.14-.32-.21-.69-.21-1.12s.07-.81.21-1.12c.14-.31.35-.55.61-.72.27-.17.59-.26.97-.26s.68.08.94.25c.27.17.47.41.61.73.14.32.21.69.21,1.12s-.07.8-.21,1.12Z"/>
    <path class="cls-1" d="m96.12,37.57c-.33,0-.64.06-.94.17-.3.12-.56.29-.78.53-.09.1-.17.22-.24.34v-.92h-1.48v6.56h1.48v-3.2c0-.51.06-.92.17-1.25.12-.33.29-.57.51-.73.23-.16.5-.23.83-.23.45,0,.77.14.99.41.21.28.32.71.32,1.29v3.7h1.48v-4.25c0-.78-.21-1.38-.62-1.8-.41-.42-.99-.63-1.72-.63Z"/>
    <path class="cls-1" d="m123.41,37.13l-1.09.88c-.07-.05-.14-.1-.22-.14-.4-.2-.84-.3-1.32-.3s-.92.1-1.32.3c-.4.2-.73.48-.96.84-.24.36-.36.78-.36,1.27,0,.45.11.86.34,1.22.08.13.19.24.29.35-.15.11-.28.24-.39.37-.23.28-.35.59-.35.93,0,.38.13.69.38.92.14.13.31.24.5.33l-1.01.66c-.02.07-.03.14-.03.21,0,.07,0,.13,0,.19,0,.6.28,1.08.84,1.43.56.35,1.32.53,2.29.53s1.64-.17,2.15-.51c.51-.34.76-.82.76-1.45,0-.36-.08-.64-.23-.86-.16-.22-.38-.4-.66-.53-.29-.13-.62-.23-1-.3-.38-.07-.8-.13-1.25-.19-.3-.04-.56-.09-.78-.14-.22-.05-.38-.12-.5-.21-.12-.09-.17-.21-.17-.37,0-.18.06-.33.19-.46,0,0,.02,0,.02-.02.39.18.83.28,1.32.28s.97-.09,1.36-.29c.39-.19.69-.46.91-.81.22-.35.33-.76.33-1.22,0-.43-.11-.8-.28-1.13l1.02-.85-.76-.92Zm-3.65,7.24c.26.06.52.14.78.18.32.04.6.07.83.11.23.04.43.09.59.14.16.05.28.12.36.21.08.08.12.19.12.33,0,.24-.13.42-.4.54-.27.12-.62.18-1.07.18-.52,0-.95-.07-1.28-.22-.33-.15-.5-.36-.5-.63v-.07s0-.05.01-.07l.55-.68Zm1.92-3.56c-.2.24-.48.35-.87.35s-.69-.12-.89-.35c-.2-.23-.31-.52-.31-.86s.11-.63.33-.84c.22-.22.51-.33.87-.33.34,0,.62.11.84.33.21.22.32.5.32.86,0,.33-.1.61-.29.85Z"/>
    <path class="cls-1" d="m76.72,38.55c-.25-.31-.56-.55-.94-.72-.38-.17-.82-.26-1.32-.26-.53,0-.99.09-1.38.29-.39.19-.71.45-.96.78-.25.33-.43.7-.55,1.11-.12.41-.18.84-.18,1.27s.06.85.19,1.26c.12.4.31.76.57,1.08.26.32.59.57.99.75.4.18.88.27,1.43.27.37,0,.71-.04,1-.11.3-.07.58-.18.86-.33.27-.15.55-.35.82-.6l-.81-.99c-.25.25-.52.43-.83.55-.3.12-.63.17-1,.17-.5,0-.91-.14-1.23-.41-.32-.28-.5-.67-.53-1.2h4.55c.02-.12.03-.23.03-.35,0-.12,0-.2,0-.27,0-.44-.06-.86-.18-1.25-.12-.39-.3-.74-.55-1.04Zm-.68,1.82h-3.2c.03-.28.1-.53.23-.77.13-.23.31-.43.55-.58.23-.15.53-.23.87-.23.25,0,.47.04.67.13.19.09.36.2.49.33.13.14.23.29.3.47.07.18.1.36.1.56,0,.03,0,.05,0,.08Z"/>
    <path class="cls-1" d="m115.45,38c-.48-.29-1.04-.43-1.68-.43s-1.19.14-1.68.43c-.49.29-.88.69-1.16,1.2-.28.51-.42,1.1-.42,1.76s.14,1.24.42,1.76c.28.52.67.92,1.16,1.21.5.29,1.06.44,1.68.44s1.19-.15,1.68-.44c.49-.29.88-.7,1.16-1.21.28-.51.42-1.1.42-1.76s-.14-1.24-.43-1.76c-.28-.51-.67-.92-1.15-1.2Zm-.11,4.08c-.14.32-.35.56-.61.73-.27.17-.58.25-.95.25s-.71-.08-.97-.25c-.27-.17-.47-.41-.61-.73-.14-.32-.21-.69-.21-1.12s.07-.81.21-1.12c.14-.31.35-.55.61-.72.27-.17.59-.26.97-.26s.68.08.95.25c.27.17.47.41.61.73.14.32.21.69.21,1.12s-.07.8-.21,1.12Z"/>
    <path class="cls-1" d="m55.9,38c-.48-.29-1.04-.43-1.68-.43s-1.19.14-1.68.43c-.49.29-.88.69-1.16,1.2-.28.51-.42,1.1-.42,1.76s.14,1.24.42,1.76c.28.52.67.92,1.16,1.21.5.29,1.06.44,1.68.44s1.19-.15,1.68-.44c.49-.29.88-.7,1.16-1.21.28-.51.42-1.1.42-1.76s-.14-1.24-.43-1.76c-.28-.51-.67-.92-1.15-1.2Zm-.11,4.08c-.14.32-.35.56-.61.73-.27.17-.58.25-.95.25-.38,0-.71-.08-.97-.25-.27-.17-.47-.41-.61-.73-.14-.32-.21-.69-.21-1.12s.07-.81.21-1.12c.14-.31.35-.55.61-.72.27-.17.59-.26.97-.26s.68.08.95.25c.27.17.47.41.61.73.14.32.21.69.21,1.12s-.07.8-.21,1.12Z"/>
    <path class="cls-1" d="m60.38,36.31c.1-.15.27-.23.51-.23.12,0,.22.02.33.05.1.03.2.07.29.13l.48-1.12c-.18-.09-.37-.16-.57-.21-.2-.05-.43-.07-.69-.07-.36,0-.7.06-.99.18-.3.12-.54.33-.71.64-.18.31-.27.73-.27,1.27v.75h-1.26v1.14h1.25v5.42h1.48v-5.42h1.44v-1.14h-1.44v-.75c0-.27.05-.48.15-.63Z"/>
    <polygon class="cls-1" points="72.42 35.25 64.97 35.25 64.97 36.63 67.92 36.63 67.92 44.25 69.48 44.25 69.48 36.63 72.42 36.63 72.42 35.25"/>
    <polygon class="cls-1" points="127.73 42.34 126.07 37.7 124.44 37.7 126.95 43.82 125.72 46.64 127.32 46.64 131.02 37.7 129.42 37.7 127.73 42.34"/>
  </g>
</svg>