<?xml version="1.0" encoding="UTF-8"?>
<svg id="Warstwa_1" data-name="Warstwa 1" xmlns="http://www.w3.org/2000/svg" viewBox="0 0 312 95">
  <defs>
    <style>
      .cls-1 {
        fill: none;
      }

      .cls-2 {
        fill: #00494b;
      }
    </style>
  </defs>
  <rect class="cls-1" width="312" height="95"/>
  <g>
    <polygon class="cls-2" points="160.18 69.32 158.48 64.8 157.18 64.8 159.73 71.3 160.62 71.3 163.16 64.8 161.85 64.8 160.18 69.32"/>
    <polygon class="cls-2" points="164.49 71.3 168.74 71.3 168.74 70.22 165.67 70.22 165.67 68.5 168.54 68.5 168.54 67.43 165.67 67.43 165.67 65.88 168.74 65.88 168.74 64.8 164.49 64.8 164.49 71.3"/>
    <path class="cls-2" d="m174.2,68.07c.33-.32.5-.79.5-1.38,0-.39-.08-.72-.23-1-.15-.28-.38-.5-.7-.65-.32-.15-.74-.23-1.25-.23h-2.1v6.5h1.18v-2.68h.75s.01,0,.02,0l1.52,2.68h1.36l-1.68-2.84c.25-.09.46-.22.64-.39Zm-2.6-.53v-1.66h.8c.2,0,.38.02.55.06.17.04.3.12.4.24.1.12.16.29.16.52s-.05.4-.16.52c-.1.12-.24.21-.4.25-.17.05-.35.07-.55.07h-.8Z"/>
    <rect class="cls-2" x="154.67" y="64.8" width="1.18" height="6.5"/>
    <path class="cls-2" d="m97.27,64.8l-2.56,6.5h1.29l.46-1.27h2.51l.46,1.27h1.29l-2.56-6.5h-.89Zm-.41,4.15l.87-2.37.85,2.37h-1.72Z"/>
    <polygon class="cls-2" points="117.64 65.88 119.61 65.88 119.61 71.3 120.81 71.3 120.81 65.88 122.77 65.88 122.77 64.8 117.64 64.8 117.64 65.88"/>
    <path class="cls-2" d="m115.77,67.93c-.27-.18-.59-.34-.99-.49-.3-.11-.54-.22-.73-.32-.19-.1-.32-.21-.4-.32-.08-.11-.12-.24-.12-.38s.03-.26.1-.36c.07-.1.17-.18.28-.24.12-.06.25-.09.41-.09.21,0,.41.06.58.18.17.12.32.3.45.54l.94-.59c-.2-.4-.47-.7-.8-.9-.33-.2-.71-.3-1.14-.3s-.76.08-1.06.23c-.3.15-.54.37-.7.63-.17.27-.25.58-.25.92,0,.33.07.62.2.86.13.24.34.46.61.64.27.18.61.36,1.01.52.28.1.52.21.7.31.19.1.33.21.42.33.09.12.14.26.14.42,0,.18-.04.32-.13.45-.09.13-.21.22-.35.29-.15.06-.32.1-.51.1-.35,0-.65-.1-.89-.3-.24-.2-.39-.5-.46-.9l-1.15.29c.09.6.35,1.07.79,1.44.43.36.99.54,1.67.54.44,0,.83-.08,1.16-.25.33-.17.59-.4.77-.7.19-.3.28-.64.28-1.03,0-.34-.07-.63-.21-.87-.14-.24-.34-.45-.61-.63Z"/>
    <polygon class="cls-2" points="103.23 64.8 102.05 64.8 102.05 71.3 105.95 71.3 105.95 70.22 103.23 70.22 103.23 64.8"/>
    <path class="cls-2" d="m128.31,65.08c-.46-.28-.99-.42-1.6-.42s-1.13.14-1.59.42c-.46.28-.82.68-1.07,1.19-.26.51-.38,1.11-.38,1.79s.13,1.27.38,1.78c.26.51.61.91,1.07,1.19.46.28.99.42,1.59.42s1.14-.14,1.59-.42c.46-.28.82-.68,1.08-1.19.26-.51.39-1.1.39-1.78s-.13-1.28-.38-1.79c-.26-.51-.61-.91-1.07-1.19Zm.03,4.17c-.15.33-.37.59-.64.78-.28.18-.61.28-1,.28s-.7-.09-.98-.27c-.28-.18-.5-.44-.65-.77-.15-.34-.22-.73-.22-1.19s.07-.87.22-1.2c.15-.34.36-.59.65-.77.28-.18.61-.27.98-.27s.72.09,1,.28c.28.18.49.44.64.78.15.33.23.73.23,1.19s-.08.85-.23,1.19Z"/>
    <path class="cls-2" d="m144.74,68.82c0,.33-.04.61-.11.84-.07.23-.2.4-.39.51-.19.11-.44.17-.77.17s-.59-.06-.77-.17c-.19-.11-.31-.28-.38-.51-.07-.23-.11-.51-.11-.84v-4.01h-1.18v4.15c0,.83.21,1.46.62,1.87.41.42,1.02.62,1.82.62s1.41-.21,1.83-.64c.41-.43.62-1.06.62-1.91v-4.1h-1.18v4.02Z"/>
    <polygon class="cls-2" points="136.7 64.8 135.11 64.8 132.55 67.56 132.55 64.8 131.37 64.8 131.37 71.3 132.55 71.3 132.55 69.1 133.42 68.2 135.32 71.3 136.72 71.3 134.27 67.32 136.7 64.8"/>
    <polygon class="cls-2" points="151.62 69.24 148.95 64.8 147.73 64.8 147.73 71.3 148.91 71.3 148.91 66.85 151.58 71.3 152.8 71.3 152.8 64.8 151.62 64.8 151.62 69.24"/>
    <rect class="cls-2" x="92.21" y="64.8" width="1.18" height="6.5"/>
    <polygon class="cls-2" points="193.64 67.56 192.2 64.8 190.84 64.8 193.08 68.76 193.08 71.3 194.26 71.3 194.26 68.76 196.48 64.8 195.14 64.8 193.64 67.56"/>
    <polygon class="cls-2" points="246.88 69.24 244.2 64.8 242.99 64.8 242.99 71.3 244.16 71.3 244.16 66.86 246.83 71.3 248.06 71.3 248.06 64.8 246.88 64.8 246.88 69.24"/>
    <polygon class="cls-2" points="239.94 67.4 237.19 67.4 237.19 64.8 236.01 64.8 236.01 71.3 237.19 71.3 237.19 68.51 239.94 68.51 239.94 71.3 241.12 71.3 241.12 64.8 239.94 64.8 239.94 67.4"/>
    <path class="cls-2" d="m230.7,66.08c.28-.18.61-.27.99-.27.41,0,.77.11,1.06.32.29.21.5.51.64.89l1.11-.42c-.21-.6-.57-1.08-1.05-1.42-.49-.34-1.07-.52-1.75-.52-.6,0-1.13.14-1.59.43-.46.29-.82.68-1.08,1.19-.26.51-.38,1.1-.38,1.78s.13,1.27.38,1.78c.26.51.62.91,1.08,1.19.46.29.99.43,1.59.43.68,0,1.26-.18,1.75-.52.49-.35.84-.82,1.05-1.43l-1.11-.41c-.14.38-.35.67-.64.89-.29.21-.64.32-1.06.32-.38,0-.71-.09-.99-.27-.28-.18-.5-.44-.65-.77-.15-.34-.22-.74-.22-1.2s.07-.87.22-1.2c.15-.33.37-.59.65-.77Z"/>
    <path class="cls-2" d="m180,67.93c-.26-.18-.6-.34-.99-.49-.3-.11-.54-.22-.73-.32-.19-.1-.32-.21-.4-.32-.08-.11-.12-.24-.12-.38s.03-.26.1-.36c.07-.1.17-.18.28-.24.12-.06.25-.09.41-.09.21,0,.41.06.58.18.17.12.32.3.45.54l.94-.59c-.2-.4-.47-.7-.8-.9-.33-.2-.71-.3-1.14-.3-.4,0-.75.08-1.05.23-.3.15-.54.37-.7.63-.17.27-.25.58-.25.92,0,.33.07.62.2.86.13.24.34.46.61.64.27.18.61.36,1.01.52.28.1.51.21.7.31.19.1.32.21.42.33.09.12.14.26.14.42,0,.18-.04.32-.13.45-.09.13-.21.22-.35.29-.15.06-.32.1-.51.1-.35,0-.65-.1-.89-.3-.24-.2-.39-.5-.46-.9l-1.15.29c.09.6.35,1.07.79,1.44.43.36.99.54,1.67.54.44,0,.83-.08,1.16-.25.33-.17.59-.4.77-.7.19-.3.28-.64.28-1.03,0-.34-.07-.63-.21-.87-.14-.24-.34-.45-.61-.63Z"/>
    <path class="cls-2" d="m254.32,65.08c-.46-.28-.99-.42-1.6-.42s-1.14.14-1.6.42c-.46.28-.82.68-1.07,1.19-.26.51-.38,1.11-.38,1.79s.13,1.27.38,1.78c.26.51.61.91,1.07,1.19.46.28.99.42,1.6.42s1.13-.14,1.59-.42c.46-.28.82-.68,1.08-1.19.26-.51.39-1.1.39-1.78s-.13-1.28-.38-1.79c-.26-.51-.61-.91-1.07-1.19Zm.03,4.17c-.15.33-.37.59-.64.78-.28.18-.61.28-1,.28s-.7-.09-.98-.27c-.28-.18-.5-.44-.65-.77-.15-.34-.22-.73-.22-1.19s.07-.87.22-1.2c.15-.34.37-.59.65-.77.28-.18.61-.27.98-.27.39,0,.72.09,1,.28.28.18.49.44.64.78.15.33.23.73.23,1.19s-.08.85-.23,1.19Z"/>
    <path class="cls-2" d="m271.69,66.08c.28-.18.61-.27.99-.27.41,0,.77.11,1.06.32.29.21.5.51.63.89l1.12-.42c-.22-.6-.57-1.08-1.06-1.42-.49-.34-1.08-.52-1.75-.52-.6,0-1.14.14-1.6.43-.46.29-.82.68-1.07,1.19-.26.51-.38,1.1-.38,1.78s.13,1.27.38,1.78c.26.51.61.91,1.05,1.19.45.29.96.43,1.54.43.28,0,.54-.04.78-.12.24-.08.45-.19.64-.35.12-.1.22-.22.31-.35l.1.67h1.04v-3.53h-2.61v1.08h1.53c-.03.18-.07.35-.13.49-.1.25-.25.44-.42.58-.18.14-.36.24-.57.29-.21.06-.41.09-.6.09-.38,0-.71-.09-.99-.27-.28-.18-.5-.44-.65-.77-.15-.34-.22-.74-.22-1.2s.07-.87.22-1.2c.15-.33.37-.59.65-.77Z"/>
    <polygon class="cls-2" points="258.57 64.8 257.39 64.8 257.39 71.3 261.28 71.3 261.28 70.22 258.57 70.22 258.57 64.8"/>
    <polygon class="cls-2" points="280.55 64.8 279.05 67.56 277.61 64.8 276.25 64.8 278.49 68.76 278.49 71.3 279.67 71.3 279.67 68.76 281.89 64.8 280.55 64.8"/>
    <path class="cls-2" d="m266.82,65.08c-.46-.28-1-.42-1.6-.42s-1.13.14-1.59.42c-.46.28-.82.68-1.07,1.19-.26.51-.38,1.11-.38,1.79s.13,1.27.38,1.78c.26.51.61.91,1.07,1.19.46.28.99.42,1.59.42s1.13-.14,1.59-.42c.46-.28.82-.68,1.08-1.19.26-.51.39-1.1.39-1.78s-.13-1.28-.38-1.79c-.26-.51-.61-.91-1.07-1.19Zm.03,4.17c-.15.33-.36.59-.64.78-.28.18-.61.28-1,.28s-.7-.09-.98-.27c-.29-.18-.5-.44-.65-.77-.15-.34-.22-.73-.22-1.19s.07-.87.22-1.2c.15-.34.36-.59.65-.77.28-.18.61-.27.98-.27.39,0,.72.09,1,.28.28.18.49.44.64.78.15.33.23.73.23,1.19s-.08.85-.23,1.19Z"/>
    <polygon class="cls-2" points="222.99 71.3 227.23 71.3 227.23 70.22 224.17 70.22 224.17 68.5 227.03 68.5 227.03 67.43 224.17 67.43 224.17 65.88 227.23 65.88 227.23 64.8 222.99 64.8 222.99 71.3"/>
    <polygon class="cls-2" points="184.93 65.88 186.9 65.88 186.9 71.3 188.1 71.3 188.1 65.88 190.07 65.88 190.07 64.8 184.93 64.8 184.93 65.88"/>
    <path class="cls-2" d="m205.19,65.08c-.46-.28-.99-.42-1.6-.42s-1.13.14-1.59.42c-.46.28-.82.68-1.07,1.19-.26.51-.38,1.11-.38,1.79s.13,1.27.38,1.78c.26.51.61.91,1.07,1.19.46.28.99.42,1.59.42s1.14-.14,1.6-.42c.46-.28.82-.68,1.08-1.19.26-.51.39-1.1.39-1.78s-.13-1.28-.38-1.79c-.26-.51-.62-.91-1.08-1.19Zm.03,4.17c-.15.33-.37.59-.64.78-.28.18-.61.28-1,.28s-.7-.09-.98-.27c-.28-.18-.5-.44-.65-.77-.15-.34-.23-.73-.23-1.19s.08-.87.23-1.2c.15-.34.36-.59.65-.77.28-.18.61-.27.98-.27.39,0,.72.09,1,.28.28.18.49.44.64.78.15.33.23.73.23,1.19s-.08.85-.23,1.19Z"/>
    <polygon class="cls-2" points="108.49 67.56 107.04 64.8 105.69 64.8 107.93 68.76 107.93 71.3 109.11 71.3 109.11 68.76 111.33 64.8 109.99 64.8 108.49 67.56"/>
    <rect class="cls-2" x="182.4" y="64.8" width="1.18" height="6.5"/>
    <path class="cls-2" d="m89.56,67.79c.22-.13.39-.31.51-.55.12-.23.18-.5.18-.8,0-.52-.18-.92-.54-1.21-.36-.29-.86-.43-1.49-.43h-2.24v6.5h2.53c.65,0,1.16-.17,1.53-.5.37-.34.55-.8.55-1.4,0-.4-.09-.73-.26-1-.17-.27-.43-.47-.79-.61Zm-2.4-1.87h1.06c.27,0,.48.06.63.19.15.12.22.3.22.53,0,.24-.07.43-.21.57-.14.14-.34.21-.58.21h-1.12v-1.5Zm1.26,4.28h-1.26v-1.71h1.32c.3,0,.53.07.69.22.16.15.24.36.24.63,0,.57-.33.85-1,.85Z"/>
    <polygon class="cls-2" points="208.25 71.3 209.44 71.3 209.44 68.5 212.11 68.5 212.11 67.43 209.44 67.43 209.44 65.88 212.51 65.88 212.51 64.8 208.25 64.8 208.25 71.3"/>
    <polygon class="cls-2" points="216.5 65.88 218.47 65.88 218.47 71.3 219.67 71.3 219.67 65.88 221.64 65.88 221.64 64.8 216.5 64.8 216.5 65.88"/>
    <path class="cls-2" d="m93.11,47.54c0-.6-.13-1.12-.39-1.54-.26-.42-.63-.79-1.11-1.09-.48-.31-1.07-.59-1.76-.86-.54-.21-.98-.4-1.32-.58-.34-.18-.6-.37-.77-.58-.16-.21-.25-.46-.25-.75s.07-.52.21-.73c.14-.21.32-.37.57-.49.24-.11.51-.17.81-.17.42,0,.79.11,1.12.34.33.23.61.55.84.96l1.51-.92c-.35-.69-.82-1.21-1.4-1.54-.58-.34-1.25-.51-2.01-.51-.7,0-1.32.13-1.86.4-.54.26-.95.63-1.25,1.09-.3.47-.44,1-.44,1.6s.12,1.08.38,1.51c.25.42.62.79,1.1,1.09.48.31,1.07.59,1.76.86.5.2.93.39,1.28.57.35.18.62.38.81.61.19.23.28.51.28.85,0,.32-.08.6-.26.86-.17.25-.4.45-.7.58s-.63.21-1,.21c-.67,0-1.23-.19-1.69-.56-.46-.37-.74-.92-.86-1.64l-1.86.46c.18,1.04.64,1.88,1.41,2.5.76.62,1.75.94,2.95.94.77,0,1.45-.15,2.03-.45.59-.3,1.04-.71,1.37-1.22.33-.52.49-1.11.49-1.78Z"/>
    <rect class="cls-2" x="103.62" y="39.32" width="1.99" height="2.02"/>
    <path class="cls-2" d="m128.57,44.48c.3-.25.69-.38,1.18-.38s.87.13,1.17.39c.3.26.51.59.64,1.01l1.61-.63c-.29-.8-.73-1.39-1.33-1.78-.6-.38-1.3-.58-2.1-.58-.64,0-1.2.11-1.69.34-.49.23-.89.53-1.22.93-.32.39-.57.84-.73,1.35-.16.51-.25,1.03-.25,1.58s.08,1.07.25,1.58c.17.5.41.96.73,1.36.32.4.73.71,1.22.94.49.22,1.05.34,1.69.34.8,0,1.5-.2,2.1-.59.6-.39,1.04-.98,1.33-1.77l-1.61-.62c-.13.42-.35.75-.64,1-.29.25-.68.38-1.17.38s-.88-.12-1.18-.37c-.3-.25-.52-.57-.67-.97-.14-.4-.21-.82-.21-1.27s.07-.87.21-1.27c.14-.39.36-.72.67-.97Z"/>
    <rect class="cls-2" x="103.71" y="42.67" width="1.82" height="8.11"/>
    <path class="cls-2" d="m97.32,44.48c.3-.25.69-.38,1.18-.38s.87.13,1.17.39c.29.26.51.59.64,1.01l1.61-.63c-.29-.8-.73-1.39-1.33-1.78-.6-.38-1.3-.58-2.1-.58-.64,0-1.2.11-1.69.34-.49.23-.89.53-1.22.93-.32.39-.57.84-.73,1.35-.17.51-.25,1.03-.25,1.58s.08,1.07.25,1.58c.16.5.41.96.73,1.36.32.4.73.71,1.22.94.49.22,1.05.34,1.69.34.8,0,1.5-.2,2.1-.59.6-.39,1.04-.98,1.33-1.77l-1.61-.62c-.13.42-.34.75-.64,1-.3.25-.69.38-1.17.38s-.87-.12-1.18-.37c-.3-.25-.53-.57-.67-.97-.14-.4-.21-.82-.21-1.27s.07-.87.21-1.27.36-.72.67-.97Z"/>
    <path class="cls-2" d="m140.85,48.43c-.31.31-.65.53-1.02.67-.37.14-.78.21-1.23.21-.61,0-1.12-.17-1.51-.51-.4-.34-.61-.83-.66-1.48h5.63c.02-.14.04-.29.04-.43,0-.14,0-.25,0-.33,0-.55-.07-1.06-.22-1.55-.15-.48-.38-.91-.68-1.29-.31-.38-.69-.67-1.16-.89-.46-.21-1.01-.32-1.63-.32-.66,0-1.23.12-1.71.35-.48.24-.88.56-1.19.96-.31.4-.53.86-.68,1.37-.15.51-.22,1.03-.22,1.57s.08,1.05.23,1.55c.15.5.39.95.71,1.34.32.4.73.7,1.22.92.5.22,1.09.33,1.77.33.46,0,.88-.04,1.24-.13.37-.09.72-.22,1.06-.41.34-.19.68-.43,1.02-.74l-1-1.22Zm-4.17-3.4c.16-.29.38-.53.68-.71.29-.19.65-.28,1.08-.28.31,0,.58.05.82.16.24.11.44.24.61.41.17.17.29.36.37.59.08.22.12.45.12.69,0,.03,0,.07,0,.1h-3.96c.03-.34.13-.66.29-.95Z"/>
    <path class="cls-2" d="m118.71,46.83c0-.63.07-1.14.21-1.55.14-.41.35-.7.63-.9.28-.19.62-.29,1.03-.29.55,0,.95.17,1.22.51.27.34.39.87.39,1.6v4.57h1.83v-5.25c0-.96-.26-1.71-.77-2.23-.51-.52-1.22-.78-2.13-.78-.41,0-.79.07-1.16.21s-.69.36-.96.66c-.11.12-.21.27-.29.42v-1.14h-1.83v8.11h1.83v-3.95Z"/>
    <path class="cls-2" d="m113.68,50.38c.34-.19.68-.43,1.02-.74l-1-1.22c-.31.31-.65.53-1.02.67-.37.14-.78.21-1.23.21-.61,0-1.12-.17-1.51-.51-.4-.34-.61-.83-.66-1.48h5.63c.02-.14.03-.29.04-.43,0-.14,0-.25,0-.33,0-.55-.07-1.06-.22-1.55-.15-.48-.37-.91-.68-1.29-.31-.38-.69-.67-1.16-.89-.47-.21-1.01-.32-1.64-.32-.66,0-1.23.12-1.71.35-.48.24-.88.56-1.18.96-.31.4-.54.86-.69,1.37-.15.51-.22,1.03-.22,1.57s.08,1.05.23,1.55c.15.5.39.95.71,1.34.32.4.73.7,1.22.92.5.22,1.09.33,1.77.33.46,0,.87-.04,1.24-.13.37-.09.72-.22,1.06-.41Zm-4.15-5.36c.16-.29.38-.53.67-.71.29-.19.65-.28,1.08-.28.31,0,.58.05.82.16.24.11.44.24.61.41.16.17.29.36.37.59.08.22.12.45.12.69,0,.03,0,.07,0,.1h-3.96c.03-.34.13-.66.29-.95Z"/>
    <path class="cls-2" d="m113.73,30.18c.43.25.97.38,1.6.38.6,0,1.14-.14,1.62-.43.31-.19.57-.45.78-.77v1.05h1.82v-8.11h-1.82v3.49c0,.67-.06,1.24-.17,1.72-.11.48-.31.84-.58,1.09-.27.25-.64.37-1.11.37-.4,0-.73-.08-.96-.25-.24-.17-.41-.4-.51-.72-.1-.31-.16-.68-.16-1.11v-4.59h-1.83v5.08c0,.67.11,1.24.33,1.71.22.47.55.83.98,1.08Z"/>
    <path class="cls-2" d="m104.39,29.28c.32.4.73.71,1.22.94.49.22,1.05.34,1.69.34.8,0,1.5-.19,2.1-.59.6-.39,1.04-.98,1.32-1.77l-1.61-.62c-.13.42-.34.75-.64,1-.29.25-.69.38-1.17.38s-.88-.12-1.18-.37c-.3-.25-.52-.57-.67-.97-.14-.4-.21-.83-.21-1.27s.07-.87.21-1.27c.14-.39.37-.72.67-.97.3-.25.69-.38,1.18-.38s.87.13,1.17.39c.3.26.51.6.64,1.01l1.61-.62c-.29-.8-.73-1.39-1.32-1.78-.6-.38-1.3-.58-2.1-.58-.63,0-1.2.11-1.69.34-.49.23-.9.54-1.22.93-.32.39-.57.85-.73,1.35-.17.5-.25,1.03-.25,1.58s.08,1.08.25,1.58c.16.5.41.96.73,1.36Z"/>
    <path class="cls-2" d="m230.75,30.42c.37-.09.72-.23,1.06-.41.34-.19.68-.43,1.02-.74l-1-1.22c-.31.31-.65.53-1.02.68-.37.14-.78.21-1.23.21-.61,0-1.12-.17-1.52-.51-.39-.34-.61-.83-.66-1.48h5.63c.02-.14.03-.29.04-.43,0-.14.01-.25.01-.33,0-.55-.08-1.06-.22-1.55-.15-.48-.37-.91-.68-1.29-.31-.38-.7-.67-1.16-.89-.47-.21-1.01-.32-1.64-.32s-1.23.12-1.71.35c-.48.24-.88.56-1.18.96-.31.41-.53.87-.68,1.38-.15.51-.22,1.03-.22,1.57s.08,1.06.23,1.55c.16.5.39.94.71,1.34.32.39.73.7,1.22.92.5.22,1.09.33,1.77.33.46,0,.87-.04,1.24-.13Zm-3.09-5.77c.16-.29.38-.53.67-.72.29-.19.65-.28,1.08-.28.31,0,.58.05.82.16.24.1.44.24.61.41.16.17.29.36.37.58.08.22.12.45.12.69,0,.03,0,.07,0,.1h-3.96c.03-.34.13-.66.29-.95Z"/>
    <polygon class="cls-2" points="133.24 33.75 135.21 33.75 139.88 22.3 137.91 22.3 135.82 28.04 133.76 22.3 131.75 22.3 134.85 29.86 133.24 33.75"/>
    <path class="cls-2" d="m224.33,30.33v-1.42c-.17.04-.32.08-.47.11-.15.03-.28.04-.39.04-.36,0-.61-.12-.75-.37-.14-.25-.21-.6-.21-1.06v-3.92h1.81v-1.41h-1.81v-2.99l-1.84,1.02v1.97h-1.55v1.41h1.55v4.43c0,.58.1,1.05.31,1.41.21.36.49.61.85.77.36.16.74.24,1.14.24.23,0,.46-.02.68-.06.23-.04.45-.1.67-.17Z"/>
    <path class="cls-2" d="m123.68,30.56c.18,0,.37-.02.59-.06.22-.04.43-.1.64-.19v-1.55c-.11.03-.22.06-.32.08-.1.02-.21.03-.3.03-.19,0-.34-.06-.45-.17-.11-.11-.17-.3-.17-.55v-9.21h-1.83v9.58c0,.71.18,1.23.53,1.55.35.32.79.49,1.32.49Z"/>
    <path class="cls-2" d="m236.85,26.82c0-.44.01-.78.04-1.03.03-.25.07-.45.12-.6.09-.28.22-.52.39-.7.18-.18.38-.32.6-.4.22-.09.45-.13.68-.13.18,0,.36.03.55.07.19.05.35.11.47.19l.89-1.64c-.26-.15-.51-.26-.76-.33-.24-.07-.49-.1-.76-.1-.37,0-.75.1-1.13.3-.38.2-.7.48-.96.84-.05.07-.08.16-.13.24v-1.23h-1.84v8.11h1.83v-3.59Z"/>
    <path class="cls-2" d="m127.08,28.14c0,.58.1,1.05.31,1.41.21.36.49.61.85.77.36.16.74.24,1.14.24.23,0,.46-.02.68-.06.23-.04.45-.1.67-.17v-1.42c-.16.04-.32.08-.47.11-.15.03-.28.04-.39.04-.36,0-.61-.12-.75-.37-.14-.25-.21-.6-.21-1.06v-3.92h1.81v-1.41h-1.81v-2.99l-1.84,1.02v1.97h-1.54v1.41h1.54v4.43Z"/>
    <path class="cls-2" d="m168.81,21.03c.53-.34,1.15-.51,1.86-.51.78,0,1.44.19,1.99.58.55.38.95.92,1.22,1.61l1.78-.64c-.38-1.05-1.01-1.88-1.88-2.47-.87-.59-1.91-.89-3.1-.89-1.08,0-2.02.25-2.83.74-.81.49-1.45,1.19-1.9,2.08-.45.89-.68,1.94-.68,3.13s.23,2.24.68,3.14c.45.9,1.09,1.59,1.9,2.09.81.49,1.75.74,2.83.74,1.2,0,2.23-.3,3.1-.91.87-.6,1.5-1.42,1.88-2.45l-1.78-.64c-.26.68-.67,1.21-1.22,1.6-.55.39-1.21.58-1.99.58-.71,0-1.33-.17-1.86-.51-.53-.34-.93-.82-1.23-1.44-.29-.62-.44-1.36-.44-2.21s.15-1.59.44-2.2c.29-.61.7-1.09,1.23-1.43Z"/>
    <polygon class="cls-2" points="86.03 30.41 87.94 30.41 87.94 25.39 92.89 25.39 92.89 23.68 87.94 23.68 87.94 20.64 93.64 20.64 93.64 18.94 86.03 18.94 86.03 30.41"/>
    <path class="cls-2" d="m184.59,24.17c-.35-.64-.82-1.13-1.42-1.49-.6-.36-1.29-.53-2.08-.53s-1.47.18-2.08.53c-.61.36-1.09.85-1.43,1.49-.34.64-.52,1.36-.52,2.17s.17,1.54.52,2.17c.34.63.83,1.13,1.44,1.49.61.36,1.3.54,2.07.54s1.47-.18,2.08-.54c.61-.36,1.09-.86,1.43-1.49.34-.64.52-1.36.52-2.17s-.18-1.53-.53-2.17Zm-1.56,3.55c-.18.39-.43.7-.76.9-.33.21-.72.31-1.17.31s-.87-.1-1.2-.31c-.33-.21-.58-.51-.76-.9-.18-.39-.26-.86-.26-1.38s.09-1,.26-1.38c.17-.38.43-.68.76-.9.33-.21.73-.32,1.2-.32s.84.11,1.17.31c.33.21.58.51.76.89.17.39.26.85.26,1.39s-.09.99-.26,1.38Z"/>
    <path class="cls-2" d="m97.38,25.52c-.38,0-.75.04-1.1.11-.35.07-.66.19-.92.35-.31.19-.56.44-.75.77-.19.33-.29.72-.29,1.17,0,.53.13.99.39,1.38.26.39.62.7,1.08.92.47.22,1,.33,1.6.33.47,0,.91-.1,1.3-.29.39-.19.74-.48,1.02-.87.03-.04.05-.1.09-.15l.11,1.16h1.68v-5.12c0-.99-.31-1.76-.91-2.31-.61-.55-1.46-.83-2.56-.83-.7,0-1.35.11-1.94.32-.59.21-1.15.57-1.68,1.06l1.02,1.2c.35-.35.74-.61,1.16-.78.42-.17.85-.25,1.29-.25.57,0,1.01.13,1.33.4.32.27.48.67.48,1.19v.23h-2.4Zm2.11,2.57c-.2.3-.46.55-.78.72-.32.17-.68.26-1.08.26-.45,0-.81-.1-1.08-.3-.27-.2-.4-.48-.4-.83,0-.18.04-.33.11-.46.07-.13.16-.24.27-.33.15-.1.33-.17.53-.2.2-.04.39-.06.59-.06h2.14v.16c0,.38-.1.73-.3,1.04Z"/>
    <path class="cls-2" d="m151.58,22.68c-.6-.36-1.29-.53-2.08-.53s-1.47.18-2.08.53c-.61.36-1.08.85-1.43,1.49-.34.64-.52,1.36-.52,2.17s.17,1.54.52,2.17c.35.63.82,1.13,1.44,1.49.61.36,1.3.54,2.07.54s1.47-.18,2.08-.54c.61-.36,1.09-.86,1.43-1.49.35-.64.52-1.36.52-2.17s-.17-1.53-.53-2.17c-.35-.64-.82-1.13-1.42-1.49Zm-.14,5.04c-.18.39-.43.7-.76.9-.33.21-.72.31-1.17.31-.47,0-.87-.1-1.2-.31-.33-.21-.58-.51-.76-.9-.18-.39-.26-.86-.26-1.38s.09-1,.26-1.38c.17-.38.43-.68.76-.9.33-.21.73-.32,1.2-.32s.84.11,1.17.31c.33.21.58.51.76.89.17.39.26.85.26,1.39s-.09.99-.26,1.38Z"/>
    <path class="cls-2" d="m157.83,30.41v-6.69h1.78v-1.42h-1.78v-.92c0-.33.06-.59.19-.78.12-.19.34-.29.63-.29.14,0,.28.02.4.06.13.04.24.09.35.16l.59-1.38c-.22-.11-.45-.2-.7-.26-.25-.06-.53-.09-.85-.09-.45,0-.86.07-1.22.22-.37.15-.66.41-.88.79-.22.38-.33.9-.33,1.57v.92h-1.56v1.42h1.55v6.69h1.83Z"/>
    <path class="cls-2" d="m217.71,30.41v-8.11h-1.83v3.49c0,.67-.06,1.24-.17,1.72-.12.48-.31.84-.58,1.09-.27.25-.64.37-1.11.37-.41,0-.73-.08-.96-.25-.24-.17-.41-.4-.51-.72-.1-.31-.16-.68-.16-1.11v-4.59h-1.82v5.08c0,.67.11,1.24.33,1.71.22.47.55.83.98,1.08.43.25.97.38,1.6.38.6,0,1.14-.14,1.62-.43.31-.19.57-.45.78-.77v1.05h1.83Z"/>
    <path class="cls-2" d="m208.75,26.36c0-.8-.15-1.52-.44-2.15-.29-.63-.7-1.14-1.22-1.5-.53-.37-1.15-.55-1.88-.55-.44,0-.85.08-1.24.24-.39.16-.73.41-1,.76-.07.08-.11.19-.17.29v-1.14h-1.81v11.47h1.81v-4.53c.05.09.09.19.16.27.27.35.6.61.99.79.39.17.81.26,1.27.26.66,0,1.25-.17,1.79-.5.53-.33.95-.82,1.27-1.45.32-.63.48-1.38.48-2.25Zm-2.11,1.33c-.18.38-.42.68-.75.89-.32.21-.7.31-1.13.31s-.8-.11-1.13-.32c-.32-.21-.57-.51-.75-.89-.18-.38-.26-.82-.26-1.32s.09-.95.26-1.33c.17-.38.42-.68.75-.89.32-.21.7-.31,1.13-.31s.8.1,1.13.31c.32.21.57.5.75.89.18.38.27.83.27,1.33s-.09.95-.27,1.33Z"/>
    <path class="cls-2" d="m197.56,22.6c-.42-.3-.98-.45-1.67-.45-.47,0-.91.1-1.31.3-.4.2-.75.51-1.04.93-.02.03-.03.07-.05.09-.04-.08-.07-.17-.12-.24-.27-.38-.59-.65-.98-.82-.38-.17-.8-.25-1.23-.25-.28,0-.57.04-.85.12-.28.08-.54.22-.78.41-.24.19-.45.45-.63.77-.01.02-.02.04-.03.06v-1.21h-1.82v8.11h1.82v-4.19c0-.55.07-1.01.2-1.37.13-.37.32-.64.58-.83.25-.19.56-.28.92-.28.46,0,.82.16,1.07.49.25.33.38.83.38,1.5v4.69h1.83v-4.19c0-.55.06-1.01.19-1.38.13-.37.31-.65.55-.83.24-.18.54-.27.91-.27.34,0,.62.08.84.24.22.16.38.39.48.7.11.31.16.69.16,1.13v4.61h1.83v-5.05c0-.56-.1-1.08-.29-1.57-.2-.49-.51-.88-.93-1.18Z"/>
    <path class="cls-2" d="m59.95,22.4c-1.66-.03-3.15.66-4.28,1.97-.81.94-1.72,2.54-1.51,4.88.52-.34,1.12-.71,1.95-.9,1.99-.45,4.68-.18,6.09,3.99.66,1.85,1.15,5.06.79,7.85-.3,2.3-1.08,4.33-2.21,5.7-.91,1.1-2.05,1.71-3.41,1.82-1.94.15-3.83-.82-4.62-1.51-1.02-.9-1.97-2.51-2.41-4.3-.5-2.03-.49-7.72-.43-9.05v-.29c.13-2.69.18-5.73,1.32-8.61-1.16.21-2.95.16-5.93-.13-2.02-.52-3.37-.52-4.03-.03-.32.23-.47.59-.53,1.18v.05s-.43.38-.43.38h-.12c-.92-.1-1.61.05-2.07.48-.52.48-.78,1.29-.8,2.49.75-.24,2.6-.59,4.18,1.06,2.09,2.18,2.68,7.54,2.03,11.79-.3,1.97-1.07,3.62-2.17,4.65-1.77,1.66-4.95,2.54-8.54,0-1.38-.97-2.25-3.34-2.27-6.19-.02-2.04.5-4.39,1.03-6.63,1.11-4.68,3.38-13.94,4.05-16.6h-6.84c-.4,1.74-.92,3.81-1.67,6.53l-.05.18c-1.23,4.48-2.63,9.55-3.34,13.45-1.17,6.43-.12,10.62,3.39,13.57,6.42,5.4,13.89,2.63,15.78.62l.42-.44.06.9c.46,6.71.72,13.01-1.55,19.98,3.35-.49,6.77-.5,10.17,0-2.09-4.89-1.79-15.02-1.69-18.66v-.03c.01-.44.02-.77.03-.99v-.42s.9.44.9.44c1.4.68,2.6,1.26,3.8,1.62,4.08,1.23,7.84.73,10.59-1.42,2.52-1.98,3.78-5.53,4.39-8.16.26-1.11,1.06-5.08.4-9.43-.51-3.39-2.94-11.65-10.47-11.78Z"/>
  </g>
</svg>