<?xml version="1.0" encoding="UTF-8" standalone="no"?>
<!DOCTYPE svg PUBLIC "-//W3C//DTD SVG 1.1//EN" "http://www.w3.org/Graphics/SVG/1.1/DTD/svg11.dtd">
<svg width="100%" height="100%" viewBox="0 0 29 34" version="1.1" xmlns="http://www.w3.org/2000/svg" xmlns:xlink="http://www.w3.org/1999/xlink" xml:space="preserve" xmlns:serif="http://www.serif.com/" style="fill-rule:evenodd;clip-rule:evenodd;stroke-linejoin:round;stroke-miterlimit:2;">
    <g transform="matrix(1,0,0,1,-17.621,-17.55)">
        <path d="M43.97,23.34C42.15,21.45 40.9,21.15 39.17,21.16C37.45,21.16 35.17,22.92 35.59,25.81C35.59,25.72 38.98,23.29 40.91,27.43C41.36,28.4 41.59,30.29 41.37,32.03C41.2,33.34 40.75,34.55 40.08,35.36C38.58,37.18 36.26,36.19 35.51,35.53C35.01,35.08 34.45,34.21 34.17,33.05C33.87,31.84 33.88,28.22 33.91,27.49C33.99,25.73 34.05,23.77 34.85,21.94C34.32,22.11 33.28,22.16 30.97,21.94C28.95,21.43 28.12,21.77 28.08,22.71L27.9,22.87C26.75,22.75 25.97,23.23 26.01,25.03C26.81,24.68 27.81,24.78 28.55,25.55C29.76,26.81 30.1,30.15 29.72,32.66C29.53,33.93 29.03,34.83 28.48,35.35C27.38,36.38 25.55,36.73 23.58,35.33C22.83,34.8 22.31,33.46 22.29,31.76C22.29,30.52 22.61,29.05 22.9,27.84C23.6,24.88 25.14,18.73 25.45,17.55L21.03,17.55C20.42,20.29 18.6,26.07 17.9,29.9C17.2,33.73 17.79,36.31 19.98,38.16C23.89,41.45 28.42,39.8 29.63,38.52C29.63,38.58 29.63,38.64 29.64,38.69C29.93,42.92 30.06,47.15 28.64,51.32C30.78,50.98 32.98,50.97 35.22,51.32C33.69,48.26 34.1,40.12 34.12,38.85C35.08,39.31 35.91,39.73 36.73,39.98C39.32,40.76 41.59,40.36 43.2,39.1C44.81,37.84 45.55,35.56 45.88,34.13C46.21,32.7 46.44,30.52 46.12,28.44C45.8,26.32 44.93,24.35 43.96,23.34L43.97,23.34Z" style="fill-rule:nonzero;"/>
    </g>
</svg>
